<svg width="33" height="33" viewBox="0 0 33 33" fill="none" xmlns="http://www.w3.org/2000/svg">
<path d="M30.7304 0.48291H1.27131C0.56285 0.48291 -0.00952148 1.05528 -0.00952148 1.76374V31.2229C-0.00952148 31.9313 0.56285 32.5037 1.27131 32.5037H30.7304C31.4389 32.5037 32.0113 31.9313 32.0113 31.2229V1.76374C32.0113 1.05528 31.4389 0.48291 30.7304 0.48291ZM27.032 9.82897H24.4744C22.4691 9.82897 22.0808 10.7816 22.0808 12.1825V15.2685H26.8679L26.2435 20.0996H22.0808V32.5037H17.0896V20.1036H12.9149V15.2685H17.0896V11.7062C17.0896 7.57151 19.6152 5.31805 23.3056 5.31805C25.0748 5.31805 26.5917 5.45013 27.036 5.51017V9.82897H27.032Z" fill="#FF5722"/>
</svg>
