<svg width="16" height="16" viewBox="0 0 16 16" fill="none" xmlns="http://www.w3.org/2000/svg">
<path d="M8.38655 13.9036C8.19552 13.9033 8.00898 13.8431 7.8512 13.7307C5.51383 12.075 4.50173 10.9398 3.94348 10.23C2.75383 8.71709 2.18428 7.16381 2.20034 5.48174C2.21908 3.55419 3.70109 1.98633 5.50401 1.98633C6.81501 1.98633 7.72302 2.75691 8.25182 3.39871C8.26857 3.41883 8.28927 3.43497 8.31251 3.44603C8.33576 3.45709 8.361 3.46281 8.38655 3.46281C8.41209 3.46281 8.43734 3.45709 8.46059 3.44603C8.48383 3.43497 8.50453 3.41883 8.52128 3.39871C9.05008 2.75629 9.95808 1.98633 11.2691 1.98633C13.072 1.98633 14.554 3.55419 14.5728 5.48205C14.5888 7.16443 14.0187 8.71771 12.8296 10.2303C12.2714 10.9401 11.2593 12.0753 8.92189 13.731C8.76408 13.8433 8.57755 13.9034 8.38655 13.9036Z" fill="#CACACA"/>
</svg>
